<?xml version="1.0" encoding="UTF-8"?>
<!DOCTYPE svg PUBLIC "-//W3C//DTD SVG 1.1//EN" "http://www.w3.org/Graphics/SVG/1.1/DTD/svg11.dtd">
<svg xmlns="http://www.w3.org/2000/svg" version="1.1" width="385px" height="385px" style="shape-rendering:geometricPrecision; text-rendering:geometricPrecision; image-rendering:optimizeQuality; fill-rule:evenodd; clip-rule:evenodd" xmlns:xlink="http://www.w3.org/1999/xlink">
<g><path style="opacity:0.999" fill="#3e95fa" d="M 174.5,-0.5 C 186.5,-0.5 198.5,-0.5 210.5,-0.5C 210.5,-0.166667 210.5,0.166667 210.5,0.5C 209.833,0.5 209.5,0.833333 209.5,1.5C 209.167,1.5 208.833,1.5 208.5,1.5C 206.983,1.51056 205.816,2.17723 205,3.5C 203.223,6.0594 201.723,8.72606 200.5,11.5C 198.259,12.2998 197.259,13.9664 197.5,16.5C 196.833,16.8333 196.167,17.1667 195.5,17.5C 192.355,20.4595 189.688,23.7929 187.5,27.5C 185.188,29.1455 183.188,31.1455 181.5,33.5C 179.469,34.5387 178.136,36.2054 177.5,38.5C 175.833,39.5 174.5,40.8333 173.5,42.5C 170.645,42.8422 169.145,44.5088 169,47.5C 166.842,48.8259 165.008,50.4925 163.5,52.5C 162.5,51.8333 161.5,51.1667 160.5,50.5C 159.261,52.0072 159.595,53.1739 161.5,54C 158.358,56.8017 156.025,60.135 154.5,64C 152.687,63.9536 151.021,64.1203 149.5,64.5C 150.975,67.2454 150.309,69.412 147.5,71C 145.953,71.3334 144.62,70.8334 143.5,69.5C 143.124,72.3733 143.124,75.3733 143.5,78.5C 139.522,84.5925 134.522,89.7592 128.5,94C 124.5,94.6667 120.5,94.6667 116.5,94C 115.619,93.2917 114.953,92.4584 114.5,91.5C 114.682,86.4787 116.016,81.8121 118.5,77.5C 118.457,76.5836 118.124,75.9169 117.5,75.5C 113.669,75.2491 110.336,76.4157 107.5,79C 102.859,82.251 98.6922,86.0844 95,90.5C 90.4526,97.9853 89.6192,105.652 92.5,113.5C 92.3962,116.09 93.0629,118.423 94.5,120.5C 89.274,127.629 86.9407,135.629 87.5,144.5C 86.0937,144.973 85.427,145.973 85.5,147.5C 84.5,149.167 83.1667,150.5 81.5,151.5C 80.5,152.167 79.5,152.833 78.5,153.5C 77.5,153.5 76.5,153.5 75.5,153.5C 75.5792,154.93 75.2458,156.264 74.5,157.5C 71.1275,160.038 68.2942,163.038 66,166.5C 65.4646,164.729 64.6313,164.396 63.5,165.5C 64.2458,166.736 64.5792,168.07 64.5,169.5C 61.0897,169.384 59.7564,171.05 60.5,174.5C 59.0695,174.421 57.7362,174.754 56.5,175.5C 55.721,178.066 54.221,180.066 52,181.5C 51.51,182.793 51.3433,184.127 51.5,185.5C 51.5,186.167 51.5,186.833 51.5,187.5C 48.8333,188.167 47.1667,189.833 46.5,192.5C 45.5,193.833 44.5,195.167 43.5,196.5C 40.1485,198.854 37.4819,201.854 35.5,205.5C 32.641,207.474 29.9743,209.807 27.5,212.5C 26.109,211.355 24.7757,211.355 23.5,212.5C 27.374,214.002 27.0407,214.669 22.5,214.5C 22.5,215.833 22.5,217.167 22.5,218.5C 21.5592,220.05 20.8925,221.716 20.5,223.5C 16.558,226.45 13.2247,230.116 10.5,234.5C 34.8242,235.5 59.1575,235.833 83.5,235.5C 83.8333,235.5 84.1667,235.5 84.5,235.5C 86.3606,247.748 90.0272,259.414 95.5,270.5C 96.0798,272.749 97.4131,274.415 99.5,275.5C 105.154,284.004 111.821,291.837 119.5,299C 121.886,300.193 124.22,301.36 126.5,302.5C 130.496,305.523 134.829,308.189 139.5,310.5C 141.526,313.518 143.526,316.518 145.5,319.5C 142.932,322.581 141.598,326.248 141.5,330.5C 140.85,330.804 140.183,331.137 139.5,331.5C 137.34,336.643 136.006,341.977 135.5,347.5C 132.338,350.738 130.672,354.738 130.5,359.5C 128.826,364.213 127.16,368.88 125.5,373.5C 75.7544,354.909 39.7544,321.742 17.5,274C 16.8333,272.667 15.8333,271.667 14.5,271C 14.8333,270.667 15.1667,270.333 15.5,270C 7.34539,251.642 2.01206,232.142 -0.5,211.5C -0.5,198.833 -0.5,186.167 -0.5,173.5C 11.5785,90.3189 57.5785,34.8189 137.5,7C 149.831,3.76758 162.164,1.26758 174.5,-0.5 Z"/></g>
<g><path style="opacity:0.11" fill="#ccd393" d="M 214.5,0.5 C 230.876,2.17665 246.542,6.17665 261.5,12.5C 245.938,7.69332 230.271,3.69332 214.5,0.5 Z"/></g>
<g><path style="opacity:1" fill="#faed74" d="M 210.5,0.5 C 211.833,0.5 213.167,0.5 214.5,0.5C 230.271,3.69332 245.938,7.69332 261.5,12.5C 263.553,12.4021 265.22,13.0687 266.5,14.5C 267.984,15.4733 268.484,16.8067 268,18.5C 263.591,24.652 260.257,31.3187 258,38.5C 255.169,40.8377 254.003,43.8377 254.5,47.5C 252.745,49.8035 251.578,52.4702 251,55.5C 250.292,56.3805 249.458,57.0472 248.5,57.5C 245.005,60.2885 243.005,63.9552 242.5,68.5C 237.933,67.2643 233.266,66.5976 228.5,66.5C 223.378,62.1005 218.045,57.9339 212.5,54C 206.065,51.4556 200.065,52.1223 194.5,56C 190.63,59.7023 186.963,63.5357 183.5,67.5C 176.461,67.7898 169.628,68.7898 163,70.5C 159.833,70.1667 156.667,69.8333 153.5,69.5C 155.432,67.6112 157.265,65.6112 159,63.5C 159.667,64.8333 160.333,64.8333 161,63.5C 162.467,60.2416 163.633,56.9083 164.5,53.5C 168.267,50.7395 171.267,47.4061 173.5,43.5C 175.893,42.6473 177.226,40.9806 177.5,38.5C 178.5,37.8333 179.5,37.1667 180.5,36.5C 181.675,36.719 182.675,36.3857 183.5,35.5C 184.424,32.591 185.757,29.9243 187.5,27.5C 189.371,27.1412 190.871,26.1412 192,24.5C 193.726,22.4088 194.893,20.0755 195.5,17.5C 196.167,17.1667 196.833,16.8333 197.5,16.5C 198.329,17.3324 199.162,16.999 200,15.5C 200.791,14.255 201.291,12.9217 201.5,11.5C 201.833,10.5 202.5,9.83333 203.5,9.5C 205.327,7.86782 207.161,6.20115 209,4.5C 209.483,3.55198 209.649,2.55198 209.5,1.5C 209.5,0.833333 209.833,0.5 210.5,0.5 Z"/></g>
<g><path style="opacity:1" fill="#69a2ca" d="M 208.5,1.5 C 206.322,3.85845 204.655,6.52511 203.5,9.5C 202.5,9.83333 201.833,10.5 201.5,11.5C 201.167,11.5 200.833,11.5 200.5,11.5C 201.723,8.72606 203.223,6.0594 205,3.5C 205.816,2.17723 206.983,1.51056 208.5,1.5 Z"/></g>
<g><path style="opacity:1" fill="#d0e0a4" d="M 208.5,1.5 C 208.833,1.5 209.167,1.5 209.5,1.5C 209.649,2.55198 209.483,3.55198 209,4.5C 207.161,6.20115 205.327,7.86782 203.5,9.5C 204.655,6.52511 206.322,3.85845 208.5,1.5 Z"/></g>
<g><path style="opacity:1" fill="#cedca7" d="M 200.5,11.5 C 200.833,11.5 201.167,11.5 201.5,11.5C 201.291,12.9217 200.791,14.255 200,15.5C 199.162,16.999 198.329,17.3324 197.5,16.5C 197.259,13.9664 198.259,12.2998 200.5,11.5 Z"/></g>
<g><path style="opacity:1" fill="#cddda6" d="M 195.5,17.5 C 194.893,20.0755 193.726,22.4088 192,24.5C 190.871,26.1412 189.371,27.1412 187.5,27.5C 189.688,23.7929 192.355,20.4595 195.5,17.5 Z"/></g>
<g><path style="opacity:1" fill="#d9e29f" d="M 266.5,14.5 C 267.959,14.4326 269.292,14.7659 270.5,15.5C 270.5,15.8333 270.5,16.1667 270.5,16.5C 267.295,22.8997 263.795,29.2331 260,35.5C 259.51,36.7932 259.343,38.1266 259.5,39.5C 258.121,42.3075 256.454,44.9741 254.5,47.5C 254.003,43.8377 255.169,40.8377 258,38.5C 260.257,31.3187 263.591,24.652 268,18.5C 268.484,16.8067 267.984,15.4733 266.5,14.5 Z"/></g>
<g><path style="opacity:1" fill="#5c9fdc" d="M 270.5,16.5 C 270.141,18.7659 270.808,20.5993 272.5,22C 271.109,23.02 269.609,23.8534 268,24.5C 266.119,28.2814 264.286,32.1147 262.5,36C 263.645,38.1986 263.645,40.3652 262.5,42.5C 261.859,41.0065 260.859,40.0065 259.5,39.5C 259.343,38.1266 259.51,36.7932 260,35.5C 263.795,29.2331 267.295,22.8997 270.5,16.5 Z"/></g>
<g><path style="opacity:1" fill="#dde29a" d="M 187.5,27.5 C 185.757,29.9243 184.424,32.591 183.5,35.5C 182.675,36.3857 181.675,36.719 180.5,36.5C 180.557,35.391 180.89,34.391 181.5,33.5C 183.188,31.1455 185.188,29.1455 187.5,27.5 Z"/></g>
<g><path style="opacity:1" fill="#89b7c0" d="M 181.5,33.5 C 180.89,34.391 180.557,35.391 180.5,36.5C 179.5,37.1667 178.5,37.8333 177.5,38.5C 178.136,36.2054 179.469,34.5387 181.5,33.5 Z"/></g>
<g><path style="opacity:1" fill="#b0bdb5" d="M 177.5,38.5 C 177.226,40.9806 175.893,42.6473 173.5,43.5C 173.5,43.1667 173.5,42.8333 173.5,42.5C 174.5,40.8333 175.833,39.5 177.5,38.5 Z"/></g>
<g><path style="opacity:1" fill="#4d91da" d="M 259.5,39.5 C 258.582,43.9342 256.915,48.1009 254.5,52C 257.138,54.6575 257.138,57.1575 254.5,59.5C 253.749,58.624 253.249,57.624 253,56.5C 252.313,58.5547 251.146,60.2214 249.5,61.5C 248.13,64.4183 247.13,67.4183 246.5,70.5C 252.523,70.4657 256.523,73.1324 258.5,78.5C 256.197,76.6753 253.864,74.8419 251.5,73C 248.562,72.3042 245.896,71.1375 243.5,69.5C 246.058,65.9187 247.725,61.9187 248.5,57.5C 249.458,57.0472 250.292,56.3805 251,55.5C 251.578,52.4702 252.745,49.8035 254.5,47.5C 256.454,44.9741 258.121,42.3075 259.5,39.5 Z"/></g>
<g><path style="opacity:1" fill="#d6cf54" d="M 220.5,67.5 C 228.525,72.3373 237.191,75.8373 246.5,78C 249.202,79.0121 251.535,80.5121 253.5,82.5C 254.08,84.7488 255.413,86.4154 257.5,87.5C 260.807,91.4263 263.64,95.7596 266,100.5C 270.335,103.669 274.168,107.336 277.5,111.5C 279.737,116.92 282.237,122.253 285,127.5C 286.039,128.71 287.206,129.71 288.5,130.5C 289.49,135.813 290.49,141.146 291.5,146.5C 290.691,148.95 291.025,151.283 292.5,153.5C 292.261,157.842 291.927,162.176 291.5,166.5C 291.5,167.167 291.5,167.833 291.5,168.5C 290.596,169.209 290.263,170.209 290.5,171.5C 287.239,171.1 286.572,172.267 288.5,175C 287.366,180.283 285.866,185.45 284,190.5C 283.263,188.404 282.097,186.737 280.5,185.5C 277.607,182.345 275.441,178.678 274,174.5C 268.959,169.291 263.792,164.291 258.5,159.5C 261.163,157.008 263.996,154.674 267,152.5C 275.799,142.314 275.299,132.481 265.5,123C 263.512,122.062 261.512,121.228 259.5,120.5C 253.272,118.853 247.272,119.52 241.5,122.5C 238.984,122.755 236.65,123.589 234.5,125C 231.5,125.667 228.5,125.667 225.5,125C 219.823,115.659 212.49,107.992 203.5,102C 201.866,101.506 200.199,101.34 198.5,101.5C 200.265,100.539 202.265,100.205 204.5,100.5C 206.354,93.297 206.854,85.9637 206,78.5C 203.707,73.7109 201.207,69.0443 198.5,64.5C 198.043,63.7025 197.376,63.3691 196.5,63.5C 197.167,62.1667 198.167,61.1667 199.5,60.5C 201.156,59.8535 202.823,59.1869 204.5,58.5C 209.665,61.8804 214.998,64.8804 220.5,67.5 Z"/></g>
<g><path style="opacity:1" fill="#5b9dde" d="M 173.5,42.5 C 173.5,42.8333 173.5,43.1667 173.5,43.5C 171.267,47.4061 168.267,50.7395 164.5,53.5C 158.173,61.4946 151.84,69.4946 145.5,77.5C 145.158,78.3382 144.492,78.6716 143.5,78.5C 143.124,75.3733 143.124,72.3733 143.5,69.5C 144.62,70.8334 145.953,71.3334 147.5,71C 150.309,69.412 150.975,67.2454 149.5,64.5C 151.021,64.1203 152.687,63.9536 154.5,64C 156.025,60.135 158.358,56.8017 161.5,54C 159.595,53.1739 159.261,52.0072 160.5,50.5C 161.5,51.1667 162.5,51.8333 163.5,52.5C 165.008,50.4925 166.842,48.8259 169,47.5C 169.145,44.5088 170.645,42.8422 173.5,42.5 Z"/></g>
<g><path style="opacity:1" fill="#d2cf7c" d="M 248.5,57.5 C 247.725,61.9187 246.058,65.9187 243.5,69.5C 238.185,69.4916 233.185,68.4916 228.5,66.5C 233.266,66.5976 237.933,67.2643 242.5,68.5C 243.005,63.9552 245.005,60.2885 248.5,57.5 Z"/></g>
<g><path style="opacity:1" fill="#e8e48b" d="M 164.5,53.5 C 163.633,56.9083 162.467,60.2416 161,63.5C 160.333,64.8333 159.667,64.8333 159,63.5C 157.265,65.6112 155.432,67.6112 153.5,69.5C 156.667,69.8333 159.833,70.1667 163,70.5C 169.628,68.7898 176.461,67.7898 183.5,67.5C 181.535,70.0119 178.868,71.3452 175.5,71.5C 168.492,71.3337 161.492,71.5004 154.5,72C 153.944,72.3826 153.611,72.8826 153.5,73.5C 150.674,73.9977 148.34,75.3311 146.5,77.5C 146.167,77.5 145.833,77.5 145.5,77.5C 151.84,69.4946 158.173,61.4946 164.5,53.5 Z"/></g>
<g><path style="opacity:1" fill="#8c8744" d="M 175.5,71.5 C 168.298,72.2319 160.965,72.8985 153.5,73.5C 153.611,72.8826 153.944,72.3826 154.5,72C 161.492,71.5004 168.492,71.3337 175.5,71.5 Z"/></g>
<g><path style="opacity:1" fill="#f8eb73" d="M 196.5,63.5 C 197.376,63.3691 198.043,63.7025 198.5,64.5C 201.207,69.0443 203.707,73.7109 206,78.5C 206.854,85.9637 206.354,93.297 204.5,100.5C 202.265,100.205 200.265,100.539 198.5,101.5C 190.053,105.594 181.553,109.594 173,113.5C 168.273,110.886 163.44,108.386 158.5,106C 155.442,105.542 152.442,105.876 149.5,107C 141.159,114.197 133.159,121.863 125.5,130C 114.413,136.604 105.913,134.438 100,123.5C 96.0632,114.292 95.5632,104.959 98.5,95.5C 98.5,94.8333 98.8333,94.5 99.5,94.5C 101.148,93.1902 102.814,91.8569 104.5,90.5C 105.176,91.6016 105.842,92.6016 106.5,93.5C 114.282,102.719 123.282,103.886 133.5,97C 138.062,92.2691 142.729,87.7691 147.5,83.5C 155.757,75.1076 164.757,74.2743 174.5,81C 179.233,81.9621 183.066,80.4621 186,76.5C 188.985,71.6888 192.485,67.3555 196.5,63.5 Z"/></g>
<g><path style="opacity:1" fill="#0e0f13" d="M 117.5,75.5 C 116.292,78.6091 114.792,81.6091 113,84.5C 112.333,86.5 112.333,88.5 113,90.5C 113.383,91.056 113.883,91.3893 114.5,91.5C 114.953,92.4584 115.619,93.2917 116.5,94C 120.5,94.6667 124.5,94.6667 128.5,94C 134.522,89.7592 139.522,84.5925 143.5,78.5C 144.492,78.6716 145.158,78.3382 145.5,77.5C 145.833,77.5 146.167,77.5 146.5,77.5C 146.789,79.525 147.122,81.525 147.5,83.5C 142.729,87.7691 138.062,92.2691 133.5,97C 123.282,103.886 114.282,102.719 106.5,93.5C 106.753,91.1727 106.086,89.1727 104.5,87.5C 102.395,89.5916 100.728,91.9249 99.5,94.5C 98.8333,94.5 98.5,94.8333 98.5,95.5C 97.3115,94.9524 96.1448,94.6191 95,94.5C 93.0001,100.654 92.1668,106.987 92.5,113.5C 89.6192,105.652 90.4526,97.9853 95,90.5C 98.6922,86.0844 102.859,82.251 107.5,79C 110.336,76.4157 113.669,75.2491 117.5,75.5 Z"/></g>
<g><path style="opacity:1" fill="#7b7736" d="M 253.5,82.5 C 255.587,83.5846 256.92,85.2512 257.5,87.5C 255.413,86.4154 254.08,84.7488 253.5,82.5 Z"/></g>
<g><path style="opacity:1" fill="#4081c9" d="M 117.5,75.5 C 118.124,75.9169 118.457,76.5836 118.5,77.5C 116.016,81.8121 114.682,86.4787 114.5,91.5C 113.883,91.3893 113.383,91.056 113,90.5C 112.333,88.5 112.333,86.5 113,84.5C 114.792,81.6091 116.292,78.6091 117.5,75.5 Z"/></g>
<g><path style="opacity:1" fill="#beb970" d="M 106.5,93.5 C 105.842,92.6016 105.176,91.6016 104.5,90.5C 102.814,91.8569 101.148,93.1902 99.5,94.5C 100.728,91.9249 102.395,89.5916 104.5,87.5C 106.086,89.1727 106.753,91.1727 106.5,93.5 Z"/></g>
<g><path style="opacity:1" fill="#123258" d="M 275.5,100.5 C 280.225,102.892 283.558,106.559 285.5,111.5C 282.195,107.859 278.862,104.192 275.5,100.5 Z"/></g>
<g><path style="opacity:1" fill="#100c08" d="M 228.5,66.5 C 233.185,68.4916 238.185,69.4916 243.5,69.5C 245.896,71.1375 248.562,72.3042 251.5,73C 253.864,74.8419 256.197,76.6753 258.5,78.5C 261.133,84.4305 264.3,90.0971 268,95.5C 270.273,97.6282 272.773,99.2949 275.5,100.5C 278.862,104.192 282.195,107.859 285.5,111.5C 290.498,117.981 294.665,124.981 298,132.5C 299.78,137.003 300.613,141.67 300.5,146.5C 300.673,155.195 300.34,163.862 299.5,172.5C 298.248,179.606 296.248,186.606 293.5,193.5C 289.731,203.494 285.398,213.16 280.5,222.5C 281.822,222.33 282.989,222.663 284,223.5C 289.02,239.315 284.52,251.815 270.5,261C 266.389,262.891 262.056,263.891 257.5,264C 251.032,271.47 244.198,278.636 237,285.5C 235.112,296.941 230.279,306.941 222.5,315.5C 207.775,327.682 190.775,333.348 171.5,332.5C 165.591,331.607 159.924,329.94 154.5,327.5C 151.792,324.791 148.792,322.458 145.5,320.5C 145.5,320.167 145.5,319.833 145.5,319.5C 143.526,316.518 141.526,313.518 139.5,310.5C 134.829,308.189 130.496,305.523 126.5,302.5C 125.766,301.292 125.433,299.959 125.5,298.5C 123.801,298.66 122.134,298.494 120.5,298C 121.5,297.667 122.5,297.333 123.5,297C 122.418,295.67 121.751,294.17 121.5,292.5C 132.982,302.971 146.315,309.971 161.5,313.5C 163.148,314.927 165.148,315.76 167.5,316C 173.167,316.333 178.833,316.667 184.5,317C 178.801,319.544 172.801,321.211 166.5,322C 188.123,326.791 206.623,320.958 222,304.5C 223.303,302.06 224.47,299.56 225.5,297C 225.167,296.5 224.833,296 224.5,295.5C 220.114,297.962 215.448,299.628 210.5,300.5C 208.933,300.523 207.6,300.023 206.5,299C 224.073,288.761 238.406,275.094 249.5,258C 269.689,257.37 278.522,247.203 276,227.5C 274.023,224.688 271.856,222.022 269.5,219.5C 271.401,218.769 273.401,218.769 275.5,219.5C 271.24,205.326 263.24,193.659 251.5,184.5C 250.571,183.311 250.238,181.978 250.5,180.5C 256.529,182.018 261.362,185.351 265,190.5C 269.4,197.243 273.4,204.243 277,211.5C 276.983,205.439 275.316,199.772 272,194.5C 267.391,187.061 261.891,180.395 255.5,174.5C 254.024,172.5 252.191,170.833 250,169.5C 249.26,168.251 249.427,167.251 250.5,166.5C 252.308,166.491 253.975,166.991 255.5,168C 265.37,177.201 272.87,188.035 278,200.5C 278.277,187.74 273.444,177.24 263.5,169C 260.29,166.283 256.956,163.783 253.5,161.5C 251.086,160.594 250.253,158.928 251,156.5C 261.179,153.01 265.512,146.01 264,135.5C 260.888,128.876 255.722,125.876 248.5,126.5C 243.357,126.495 238.357,127.329 233.5,129C 229.833,129.667 226.167,129.667 222.5,129C 219.061,126.473 216.061,123.473 213.5,120C 210.108,117.306 206.441,115.14 202.5,113.5C 194.711,111.581 187.378,112.747 180.5,117C 172.698,118.62 165.698,116.953 159.5,112C 156.5,111.333 153.5,111.333 150.5,112C 143.857,118.311 137.524,124.978 131.5,132C 125.477,134.992 119.643,138.159 114,141.5C 89.3219,177.21 84.1553,215.543 98.5,256.5C 96.8958,255.713 96.2291,254.38 96.5,252.5C 95.5,252.5 94.5,252.5 93.5,252.5C 93.9579,257.029 92.9579,257.529 90.5,254C 89.1661,249.283 87.8328,244.616 86.5,240C 86.6448,238.774 86.9781,237.607 87.5,236.5C 86.6063,236.483 85.6063,236.149 84.5,235.5C 84.1667,235.5 83.8333,235.5 83.5,235.5C 83.5,235.167 83.5,234.833 83.5,234.5C 79.675,209.283 83.675,185.449 95.5,163C 93.8606,158.885 91.8606,155.051 89.5,151.5C 89.5905,148.848 88.9238,146.515 87.5,144.5C 86.9407,135.629 89.274,127.629 94.5,120.5C 93.0629,118.423 92.3962,116.09 92.5,113.5C 92.1668,106.987 93.0001,100.654 95,94.5C 96.1448,94.6191 97.3115,94.9524 98.5,95.5C 95.5632,104.959 96.0632,114.292 100,123.5C 105.913,134.438 114.413,136.604 125.5,130C 133.159,121.863 141.159,114.197 149.5,107C 152.442,105.876 155.442,105.542 158.5,106C 163.44,108.386 168.273,110.886 173,113.5C 181.553,109.594 190.053,105.594 198.5,101.5C 200.199,101.34 201.866,101.506 203.5,102C 212.49,107.992 219.823,115.659 225.5,125C 228.5,125.667 231.5,125.667 234.5,125C 236.65,123.589 238.984,122.755 241.5,122.5C 247.378,120.935 253.378,120.268 259.5,120.5C 261.512,121.228 263.512,122.062 265.5,123C 275.299,132.481 275.799,142.314 267,152.5C 263.996,154.674 261.163,157.008 258.5,159.5C 263.792,164.291 268.959,169.291 274,174.5C 275.441,178.678 277.607,182.345 280.5,185.5C 280.76,189.302 281.594,192.969 283,196.5C 287.236,187.667 290.07,178.334 291.5,168.5C 291.5,167.833 291.5,167.167 291.5,166.5C 293.017,162.44 293.684,158.107 293.5,153.5C 293.498,150.314 293.165,147.314 292.5,144.5C 292.39,139.378 291.056,134.712 288.5,130.5C 286.602,125.704 284.435,121.038 282,116.5C 280.483,114.76 278.983,113.094 277.5,111.5C 274.168,107.336 270.335,103.669 266,100.5C 263.64,95.7596 260.807,91.4263 257.5,87.5C 256.92,85.2512 255.587,83.5846 253.5,82.5C 251.535,80.5121 249.202,79.0121 246.5,78C 237.191,75.8373 228.525,72.3373 220.5,67.5C 215.589,61.3702 209.256,58.2035 201.5,58C 200.619,58.7083 199.953,59.5416 199.5,60.5C 198.167,61.1667 197.167,62.1667 196.5,63.5C 192.485,67.3555 188.985,71.6888 186,76.5C 183.066,80.4621 179.233,81.9621 174.5,81C 164.757,74.2743 155.757,75.1076 147.5,83.5C 147.122,81.525 146.789,79.525 146.5,77.5C 148.34,75.3311 150.674,73.9977 153.5,73.5C 160.965,72.8985 168.298,72.2319 175.5,71.5C 178.868,71.3452 181.535,70.0119 183.5,67.5C 186.963,63.5357 190.63,59.7023 194.5,56C 200.065,52.1223 206.065,51.4556 212.5,54C 218.045,57.9339 223.378,62.1005 228.5,66.5 Z"/></g>
<g><path style="opacity:1" fill="#b4af5a" d="M 220.5,67.5 C 214.998,64.8804 209.665,61.8804 204.5,58.5C 202.823,59.1869 201.156,59.8535 199.5,60.5C 199.953,59.5416 200.619,58.7083 201.5,58C 209.256,58.2035 215.589,61.3702 220.5,67.5 Z"/></g>
<g><path style="opacity:1" fill="#fbe9d5" d="M 202.5,113.5 C 203.658,114.573 203.658,115.739 202.5,117C 206.697,126.314 209.364,135.814 210.5,145.5C 204.229,138.232 199.562,139.232 196.5,148.5C 202.746,152.07 208.746,156.07 214.5,160.5C 214.338,162.527 214.505,164.527 215,166.5C 215.219,165.062 215.719,163.729 216.5,162.5C 217.034,171.228 217.868,180.228 219,189.5C 222.052,217.595 219.052,244.928 210,271.5C 203.479,280.682 196.979,289.848 190.5,299C 188.051,299.725 185.717,300.725 183.5,302C 179.934,304.847 176.268,307.514 172.5,310C 169.043,311.988 165.377,313.154 161.5,313.5C 146.315,309.971 132.982,302.971 121.5,292.5C 116.833,286.996 112.333,281.33 108,275.5C 104.308,269.45 101.142,263.117 98.5,256.5C 84.1553,215.543 89.3219,177.21 114,141.5C 119.643,138.159 125.477,134.992 131.5,132C 137.524,124.978 143.857,118.311 150.5,112C 153.5,111.333 156.5,111.333 159.5,112C 165.698,116.953 172.698,118.62 180.5,117C 187.378,112.747 194.711,111.581 202.5,113.5 Z"/></g>
<g><path style="opacity:1" fill="#b4b05b" d="M 277.5,111.5 C 278.983,113.094 280.483,114.76 282,116.5C 284.435,121.038 286.602,125.704 288.5,130.5C 287.206,129.71 286.039,128.71 285,127.5C 282.237,122.253 279.737,116.92 277.5,111.5 Z"/></g>
<g><path style="opacity:1" fill="#393313" d="M 259.5,120.5 C 253.378,120.268 247.378,120.935 241.5,122.5C 247.272,119.52 253.272,118.853 259.5,120.5 Z"/></g>
<g><path style="opacity:1" fill="#f1d8b9" d="M 202.5,113.5 C 206.441,115.14 210.108,117.306 213.5,120C 216.061,123.473 219.061,126.473 222.5,129C 226.167,129.667 229.833,129.667 233.5,129C 238.357,127.329 243.357,126.495 248.5,126.5C 255.722,125.876 260.888,128.876 264,135.5C 265.512,146.01 261.179,153.01 251,156.5C 250.253,158.928 251.086,160.594 253.5,161.5C 253.414,162.496 253.748,163.329 254.5,164C 253.142,164.934 251.808,165.768 250.5,166.5C 249.427,167.251 249.26,168.251 250,169.5C 252.191,170.833 254.024,172.5 255.5,174.5C 255.414,175.496 255.748,176.329 256.5,177C 254.111,177.739 252.111,178.905 250.5,180.5C 250.238,181.978 250.571,183.311 251.5,184.5C 263.24,193.659 271.24,205.326 275.5,219.5C 273.401,218.769 271.401,218.769 269.5,219.5C 271.856,222.022 274.023,224.688 276,227.5C 278.522,247.203 269.689,257.37 249.5,258C 238.406,275.094 224.073,288.761 206.5,299C 207.6,300.023 208.933,300.523 210.5,300.5C 215.448,299.628 220.114,297.962 224.5,295.5C 224.833,296 225.167,296.5 225.5,297C 224.47,299.56 223.303,302.06 222,304.5C 206.623,320.958 188.123,326.791 166.5,322C 172.801,321.211 178.801,319.544 184.5,317C 178.833,316.667 173.167,316.333 167.5,316C 165.148,315.76 163.148,314.927 161.5,313.5C 165.377,313.154 169.043,311.988 172.5,310C 176.268,307.514 179.934,304.847 183.5,302C 185.717,300.725 188.051,299.725 190.5,299C 196.979,289.848 203.479,280.682 210,271.5C 219.052,244.928 222.052,217.595 219,189.5C 217.868,180.228 217.034,171.228 216.5,162.5C 215.719,163.729 215.219,165.062 215,166.5C 214.505,164.527 214.338,162.527 214.5,160.5C 215.15,160.804 215.817,161.137 216.5,161.5C 217.641,159.579 217.808,157.579 217,155.5C 215.004,152.014 212.837,148.681 210.5,145.5C 209.364,135.814 206.697,126.314 202.5,117C 203.658,115.739 203.658,114.573 202.5,113.5 Z"/></g>
<g><path style="opacity:1" fill="#e8df75" d="M 97.5,130.5 C 98.552,130.351 99.552,130.517 100.5,131C 103.11,134.122 106.11,136.622 109.5,138.5C 105.584,143.996 101.918,149.663 98.5,155.5C 92.3401,147.294 92.0067,138.96 97.5,130.5 Z"/></g>
<g><path style="opacity:1" fill="#14100c" d="M 136.5,140.5 C 136.768,143.119 136.435,145.619 135.5,148C 129.509,148.499 123.509,148.666 117.5,148.5C 117.369,147.624 117.702,146.957 118.5,146.5C 123.102,144.466 127.435,141.966 131.5,139C 133.674,138.123 135.341,138.623 136.5,140.5 Z"/></g>
<g><path style="opacity:1" fill="#120f0b" d="M 210.5,145.5 C 212.837,148.681 215.004,152.014 217,155.5C 217.808,157.579 217.641,159.579 216.5,161.5C 215.817,161.137 215.15,160.804 214.5,160.5C 208.746,156.07 202.746,152.07 196.5,148.5C 199.562,139.232 204.229,138.232 210.5,145.5 Z"/></g>
<g><path style="opacity:1" fill="#b8b45c" d="M 288.5,130.5 C 291.056,134.712 292.39,139.378 292.5,144.5C 292.5,147.5 292.5,150.5 292.5,153.5C 291.025,151.283 290.691,148.95 291.5,146.5C 290.49,141.146 289.49,135.813 288.5,130.5 Z"/></g>
<g><path style="opacity:1" fill="#c7dba1" d="M 301.5,148.5 C 301.5,148.167 301.5,147.833 301.5,147.5C 325.169,147.333 348.836,147.5 372.5,148C 371.837,149.518 370.837,150.685 369.5,151.5C 369.414,150.504 369.748,149.671 370.5,149C 347.502,148.5 324.502,148.333 301.5,148.5 Z"/></g>
<g><path style="opacity:1" fill="#9a8f81" d="M 136.5,140.5 C 137.817,143.23 137.817,146.063 136.5,149C 129.986,149.82 123.653,149.653 117.5,148.5C 123.509,148.666 129.509,148.499 135.5,148C 136.435,145.619 136.768,143.119 136.5,140.5 Z"/></g>
<g><path style="opacity:1" fill="#c8c783" d="M 87.5,144.5 C 88.9238,146.515 89.5905,148.848 89.5,151.5C 88.3332,149.959 86.9999,148.625 85.5,147.5C 85.427,145.973 86.0937,144.973 87.5,144.5 Z"/></g>
<g><path style="opacity:1" fill="#6c672d" d="M 292.5,144.5 C 293.165,147.314 293.498,150.314 293.5,153.5C 293.684,158.107 293.017,162.44 291.5,166.5C 291.927,162.176 292.261,157.842 292.5,153.5C 292.5,150.5 292.5,147.5 292.5,144.5 Z"/></g>
<g><path style="opacity:0.999" fill="#3e96fb" d="M 270.5,15.5 C 334.284,46.2945 372.284,96.6278 384.5,166.5C 384.5,183.833 384.5,201.167 384.5,218.5C 372.33,287.661 335.496,337.328 274,367.5C 256.581,375.891 238.414,381.557 219.5,384.5C 212.167,384.5 204.833,384.5 197.5,384.5C 198.5,383.167 199.5,381.833 200.5,380.5C 203.277,378.049 205.277,375.049 206.5,371.5C 207.906,371.027 208.573,370.027 208.5,368.5C 210.914,367.089 212.581,365.089 213.5,362.5C 214.167,362.5 214.5,362.167 214.5,361.5C 216.984,359.2 218.984,356.533 220.5,353.5C 225.963,347.268 230.963,340.601 235.5,333.5C 237.167,330.833 238.833,328.167 240.5,325.5C 242.823,322.874 245.157,320.207 247.5,317.5C 248.5,317.5 249.5,317.5 250.5,317.5C 253.219,313.428 255.552,309.095 257.5,304.5C 258.75,304.577 259.583,305.244 260,306.5C 261.876,300.131 265.209,294.797 270,290.5C 270.483,289.552 270.649,288.552 270.5,287.5C 271.5,285.5 272.5,283.5 273.5,281.5C 273.833,280.5 274.5,279.833 275.5,279.5C 280.642,273.891 285.308,267.891 289.5,261.5C 289.328,260.508 289.662,259.842 290.5,259.5C 293.44,255.545 296.44,251.545 299.5,247.5C 299.5,246.833 299.833,246.5 300.5,246.5C 305.029,243.639 308.029,239.639 309.5,234.5C 310.833,232.167 312.167,229.833 313.5,227.5C 315.587,226.415 316.92,224.749 317.5,222.5C 319.129,221.375 320.629,220.041 322,218.5C 324.682,215.135 326.849,211.469 328.5,207.5C 330.034,204.407 332.034,201.74 334.5,199.5C 336.587,198.415 337.92,196.749 338.5,194.5C 341.19,191.467 343.523,188.133 345.5,184.5C 349.548,180.746 352.882,176.413 355.5,171.5C 357.615,169.109 360.281,167.776 363.5,167.5C 363.369,163.779 364.369,160.446 366.5,157.5C 366.975,155.216 367.975,153.216 369.5,151.5C 370.837,150.685 371.837,149.518 372.5,148C 348.836,147.5 325.169,147.333 301.5,147.5C 301.5,146.833 301.167,146.5 300.5,146.5C 300.613,141.67 299.78,137.003 298,132.5C 294.665,124.981 290.498,117.981 285.5,111.5C 283.558,106.559 280.225,102.892 275.5,100.5C 272.773,99.2949 270.273,97.6282 268,95.5C 264.3,90.0971 261.133,84.4305 258.5,78.5C 256.523,73.1324 252.523,70.4657 246.5,70.5C 247.13,67.4183 248.13,64.4183 249.5,61.5C 251.146,60.2214 252.313,58.5547 253,56.5C 253.249,57.624 253.749,58.624 254.5,59.5C 257.138,57.1575 257.138,54.6575 254.5,52C 256.915,48.1009 258.582,43.9342 259.5,39.5C 260.859,40.0065 261.859,41.0065 262.5,42.5C 263.645,40.3652 263.645,38.1986 262.5,36C 264.286,32.1147 266.119,28.2814 268,24.5C 269.609,23.8534 271.109,23.02 272.5,22C 270.808,20.5993 270.141,18.7659 270.5,16.5C 270.5,16.1667 270.5,15.8333 270.5,15.5 Z"/></g>
<g><path style="opacity:1" fill="#9bc2bc" d="M 81.5,151.5 C 81.2671,153.062 80.6005,154.395 79.5,155.5C 78.5,156.167 77.5,156.833 76.5,157.5C 76.7329,155.938 77.3995,154.605 78.5,153.5C 79.5,152.833 80.5,152.167 81.5,151.5 Z"/></g>
<g><path style="opacity:1" fill="#4b98e6" d="M 78.5,153.5 C 77.3995,154.605 76.7329,155.938 76.5,157.5C 73.4557,159.909 71.1223,162.909 69.5,166.5C 68.5,166.833 67.8333,167.5 67.5,168.5C 64.1711,170.834 61.5044,173.834 59.5,177.5C 58.7611,177.369 58.0944,177.536 57.5,178C 55.841,180.844 53.841,183.344 51.5,185.5C 51.3433,184.127 51.51,182.793 52,181.5C 54.221,180.066 55.721,178.066 56.5,175.5C 57.7362,174.754 59.0695,174.421 60.5,174.5C 59.7564,171.05 61.0897,169.384 64.5,169.5C 64.5792,168.07 64.2458,166.736 63.5,165.5C 64.6313,164.396 65.4646,164.729 66,166.5C 68.2942,163.038 71.1275,160.038 74.5,157.5C 75.2458,156.264 75.5792,154.93 75.5,153.5C 76.5,153.5 77.5,153.5 78.5,153.5 Z"/></g>
<g><path style="opacity:1" fill="#649ed9" d="M 366.5,157.5 C 364.369,160.446 363.369,163.779 363.5,167.5C 360.281,167.776 357.615,169.109 355.5,171.5C 358.411,166.254 362.078,161.587 366.5,157.5 Z"/></g>
<g><path style="opacity:1" fill="#e7e596" d="M 79.5,155.5 C 76.8184,158.196 75.1517,161.529 74.5,165.5C 72.9547,166.452 71.288,166.785 69.5,166.5C 71.1223,162.909 73.4557,159.909 76.5,157.5C 77.5,156.833 78.5,156.167 79.5,155.5 Z"/></g>
<g><path style="opacity:1" fill="#faed74" d="M 85.5,147.5 C 86.9999,148.625 88.3332,149.959 89.5,151.5C 91.8606,155.051 93.8606,158.885 95.5,163C 83.675,185.449 79.675,209.283 83.5,234.5C 59.831,234.667 36.1643,234.5 12.5,234C 15.3826,230.624 18.0493,227.124 20.5,223.5C 21.1667,223.167 21.8333,222.833 22.5,222.5C 26.1573,219.343 29.6573,216.01 33,212.5C 34.5874,213.727 35.9207,213.394 37,211.5C 37.6877,210.668 37.521,210.002 36.5,209.5C 35.6043,210.506 34.9377,210.506 34.5,209.5C 36.2776,207.736 37.6109,205.736 38.5,203.5C 40.5547,201.445 42.2213,199.112 43.5,196.5C 44.5,195.167 45.5,193.833 46.5,192.5C 48.5,191.167 50.1667,189.5 51.5,187.5C 52.8333,186.5 54.1667,185.5 55.5,184.5C 59.8929,179.443 63.8929,174.11 67.5,168.5C 67.8333,167.5 68.5,166.833 69.5,166.5C 71.288,166.785 72.9547,166.452 74.5,165.5C 75.1517,161.529 76.8184,158.196 79.5,155.5C 80.6005,154.395 81.2671,153.062 81.5,151.5C 83.1667,150.5 84.5,149.167 85.5,147.5 Z"/></g>
<g><path style="opacity:1" fill="#110d0a" d="M 121.5,166.5 C 127.686,167.391 130.352,171.058 129.5,177.5C 129.309,183.311 126.809,187.644 122,190.5C 120.013,189.846 118.68,188.513 118,186.5C 115.174,179.035 116.34,172.369 121.5,166.5 Z"/></g>
<g><path style="opacity:1" fill="#9e9953" d="M 300.5,146.5 C 301.167,146.5 301.5,146.833 301.5,147.5C 301.5,147.833 301.5,148.167 301.5,148.5C 301.666,155.508 301.5,162.508 301,169.5C 300.768,170.737 300.268,171.737 299.5,172.5C 300.34,163.862 300.673,155.195 300.5,146.5 Z"/></g>
<g><path style="opacity:1" fill="#13100c" d="M 195.5,171.5 C 201.611,172.178 204.278,175.678 203.5,182C 203.735,185.496 202.902,188.663 201,191.5C 198.285,196.109 195.285,196.443 192,192.5C 189.14,184.714 190.306,177.714 195.5,171.5 Z"/></g>
<g><path style="opacity:1" fill="#b6d0b0" d="M 355.5,171.5 C 352.882,176.413 349.548,180.746 345.5,184.5C 347.364,180.762 349.531,177.095 352,173.5C 352.816,172.177 353.983,171.511 355.5,171.5 Z"/></g>
<g><path style="opacity:1" fill="#d7e5a0" d="M 67.5,168.5 C 63.8929,174.11 59.8929,179.443 55.5,184.5C 56.5686,182.031 57.9019,179.698 59.5,177.5C 61.5044,173.834 64.1711,170.834 67.5,168.5 Z"/></g>
<g><path style="opacity:1" fill="#b4b154" d="M 291.5,168.5 C 290.07,178.334 287.236,187.667 283,196.5C 281.594,192.969 280.76,189.302 280.5,185.5C 282.097,186.737 283.263,188.404 284,190.5C 285.866,185.45 287.366,180.283 288.5,175C 286.572,172.267 287.239,171.1 290.5,171.5C 290.263,170.209 290.596,169.209 291.5,168.5 Z"/></g>
<g><path style="opacity:1" fill="#99c1be" d="M 59.5,177.5 C 57.9019,179.698 56.5686,182.031 55.5,184.5C 54.1667,185.5 52.8333,186.5 51.5,187.5C 51.5,186.833 51.5,186.167 51.5,185.5C 53.841,183.344 55.841,180.844 57.5,178C 58.0944,177.536 58.7611,177.369 59.5,177.5 Z"/></g>
<g><path style="opacity:1" fill="#13100c" d="M 160.5,169.5 C 161.649,169.791 162.316,170.624 162.5,172C 158.716,183.402 153.216,193.902 146,203.5C 145.333,205.5 145.333,207.5 146,209.5C 147.734,213.139 149.568,216.639 151.5,220C 151.245,221.326 150.578,222.326 149.5,223C 147.5,223.667 145.5,223.667 143.5,223C 140.541,218.249 137.707,213.416 135,208.5C 134.333,206.833 134.333,205.167 135,203.5C 145.699,193.747 154.199,182.413 160.5,169.5 Z"/></g>
<g><path style="opacity:1" fill="#d9c8b2" d="M 255.5,174.5 C 261.891,180.395 267.391,187.061 272,194.5C 275.316,199.772 276.983,205.439 277,211.5C 273.4,204.243 269.4,197.243 265,190.5C 261.362,185.351 256.529,182.018 250.5,180.5C 252.111,178.905 254.111,177.739 256.5,177C 255.748,176.329 255.414,175.496 255.5,174.5 Z"/></g>
<g><path style="opacity:1" fill="#d8c7b0" d="M 253.5,161.5 C 256.956,163.783 260.29,166.283 263.5,169C 273.444,177.24 278.277,187.74 278,200.5C 272.87,188.035 265.37,177.201 255.5,168C 253.975,166.991 252.308,166.491 250.5,166.5C 251.808,165.768 253.142,164.934 254.5,164C 253.748,163.329 253.414,162.496 253.5,161.5 Z"/></g>
<g><path style="opacity:1" fill="#95bdba" d="M 51.5,187.5 C 50.1667,189.5 48.5,191.167 46.5,192.5C 47.1667,189.833 48.8333,188.167 51.5,187.5 Z"/></g>
<g><path style="opacity:1" fill="#c8c066" d="M 299.5,172.5 C 299.216,178.32 298.883,183.987 298.5,189.5C 297.5,189.5 296.5,189.5 295.5,189.5C 295.771,191.38 295.104,192.713 293.5,193.5C 296.248,186.606 298.248,179.606 299.5,172.5 Z"/></g>
<g><path style="opacity:1" fill="#19140f" d="M 249.5,194.5 C 257.526,196.689 262.859,201.856 265.5,210C 265.167,210.5 264.833,211 264.5,211.5C 260.176,206.343 255.342,201.676 250,197.5C 249.517,196.552 249.351,195.552 249.5,194.5 Z"/></g>
<g><path style="opacity:1" fill="#89b6bd" d="M 338.5,194.5 C 337.92,196.749 336.587,198.415 334.5,199.5C 335.08,197.251 336.413,195.585 338.5,194.5 Z"/></g>
<g><path style="opacity:1" fill="#aac4bb" d="M 43.5,196.5 C 42.2213,199.112 40.5547,201.445 38.5,203.5C 37.5,204.167 36.5,204.833 35.5,205.5C 37.4819,201.854 40.1485,198.854 43.5,196.5 Z"/></g>
<g><path style="opacity:1" fill="#ebe98c" d="M 38.5,203.5 C 37.6109,205.736 36.2776,207.736 34.5,209.5C 34.9377,210.506 35.6043,210.506 36.5,209.5C 37.521,210.002 37.6877,210.668 37,211.5C 35.9207,213.394 34.5874,213.727 33,212.5C 29.6573,216.01 26.1573,219.343 22.5,222.5C 22.7329,220.938 23.3995,219.605 24.5,218.5C 28.1961,214.142 31.8628,209.808 35.5,205.5C 36.5,204.833 37.5,204.167 38.5,203.5 Z"/></g>
<g><path style="opacity:1" fill="#1a1611" d="M 249.5,207.5 C 255.622,209.052 258.288,213.052 257.5,219.5C 254.654,219.191 253.154,217.525 253,214.5C 251.478,212.978 249.978,211.478 248.5,210C 248.743,209.098 249.077,208.265 249.5,207.5 Z"/></g>
<g><path style="opacity:1" fill="#519ae1" d="M 35.5,205.5 C 31.8628,209.808 28.1961,214.142 24.5,218.5C 23.8333,218.5 23.1667,218.5 22.5,218.5C 22.5,217.167 22.5,215.833 22.5,214.5C 27.0407,214.669 27.374,214.002 23.5,212.5C 24.7757,211.355 26.109,211.355 27.5,212.5C 29.9743,209.807 32.641,207.474 35.5,205.5 Z"/></g>
<g><path style="opacity:1" fill="#84b0ba" d="M 22.5,218.5 C 23.1667,218.5 23.8333,218.5 24.5,218.5C 23.3995,219.605 22.7329,220.938 22.5,222.5C 21.8333,222.833 21.1667,223.167 20.5,223.5C 20.8925,221.716 21.5592,220.05 22.5,218.5 Z"/></g>
<g><path style="opacity:1" fill="#8eb8bb" d="M 328.5,207.5 C 326.849,211.469 324.682,215.135 322,218.5C 320.629,220.041 319.129,221.375 317.5,222.5C 320.458,216.891 324.124,211.891 328.5,207.5 Z"/></g>
<g><path style="opacity:1" fill="#15120f" d="M 186.5,223.5 C 193.105,228.26 199.605,233.26 206,238.5C 205.537,245.254 204.204,251.921 202,258.5C 201.586,258.957 201.086,259.291 200.5,259.5C 199.676,256.215 199.176,252.882 199,249.5C 198.275,248.941 197.442,248.608 196.5,248.5C 184.664,255.084 172.331,260.584 159.5,265C 143.343,266.225 129.01,261.559 116.5,251C 114.866,250.506 113.199,250.34 111.5,250.5C 111.66,252.199 111.494,253.866 111,255.5C 106.61,249.757 104.277,243.424 104,236.5C 106.682,233.65 109.516,230.984 112.5,228.5C 113.259,231.157 113.926,233.823 114.5,236.5C 127.69,241.646 141.357,243.479 155.5,242C 166.051,240.112 176.385,237.446 186.5,234C 187.574,233.261 188.241,232.261 188.5,231C 187.521,228.567 186.855,226.067 186.5,223.5 Z"/></g>
<g><path style="opacity:1" fill="#b5d1b7" d="M 317.5,222.5 C 316.92,224.749 315.587,226.415 313.5,227.5C 313.731,224.937 315.065,223.27 317.5,222.5 Z"/></g>
<g><path style="opacity:1" fill="#bcd2a2" d="M 20.5,223.5 C 18.0493,227.124 15.3826,230.624 12.5,234C 36.1643,234.5 59.831,234.667 83.5,234.5C 83.5,234.833 83.5,235.167 83.5,235.5C 59.1575,235.833 34.8242,235.5 10.5,234.5C 13.2247,230.116 16.558,226.45 20.5,223.5 Z"/></g>
<g><path style="opacity:1" fill="#e3e894" d="M 313.5,227.5 C 312.167,229.833 310.833,232.167 309.5,234.5C 304.968,237.363 301.968,241.363 300.5,246.5C 299.833,246.5 299.5,246.833 299.5,247.5C 298.833,247.5 298.167,247.5 297.5,247.5C 297.5,246.167 297.5,244.833 297.5,243.5C 300.714,242.472 302.548,240.138 303,236.5C 306.198,235.77 307.698,233.77 307.5,230.5C 308.5,230.5 309.5,230.5 310.5,230.5C 310.5,229.5 310.5,228.5 310.5,227.5C 311.5,227.5 312.5,227.5 313.5,227.5 Z"/></g>
<g><path style="opacity:1" fill="#f1f1ef" d="M 185.5,238.5 C 188.649,238.211 191.649,238.711 194.5,240C 195.833,241.667 195.833,243.333 194.5,245C 186.167,248.667 177.833,252.333 169.5,256C 158.893,258.775 148.226,259.108 137.5,257C 129.5,253.667 121.5,250.333 113.5,247C 111.771,245.211 111.104,243.044 111.5,240.5C 123.581,242.949 135.747,244.949 148,246.5C 160.887,245.052 173.387,242.386 185.5,238.5 Z"/></g>
<g><path style="opacity:1" fill="#6aa3ce" d="M 309.5,234.5 C 308.029,239.639 305.029,243.639 300.5,246.5C 301.968,241.363 304.968,237.363 309.5,234.5 Z"/></g>
<g><path style="opacity:1" fill="#90b9ba" d="M 297.5,247.5 C 298.167,247.5 298.833,247.5 299.5,247.5C 296.44,251.545 293.44,255.545 290.5,259.5C 292.003,255.001 294.336,251.001 297.5,247.5 Z"/></g>
<g><path style="opacity:1" fill="#0c0b11" d="M 84.5,235.5 C 85.6063,236.149 86.6063,236.483 87.5,236.5C 86.9781,237.607 86.6448,238.774 86.5,240C 87.8328,244.616 89.1661,249.283 90.5,254C 92.9579,257.529 93.9579,257.029 93.5,252.5C 94.5,252.5 95.5,252.5 96.5,252.5C 96.2291,254.38 96.8958,255.713 98.5,256.5C 101.142,263.117 104.308,269.45 108,275.5C 112.333,281.33 116.833,286.996 121.5,292.5C 121.751,294.17 122.418,295.67 123.5,297C 122.5,297.333 121.5,297.667 120.5,298C 122.134,298.494 123.801,298.66 125.5,298.5C 125.433,299.959 125.766,301.292 126.5,302.5C 124.22,301.36 121.886,300.193 119.5,299C 111.821,291.837 105.154,284.004 99.5,275.5C 98.9202,273.251 97.5869,271.585 95.5,270.5C 90.0272,259.414 86.3606,247.748 84.5,235.5 Z"/></g>
<g><path style="opacity:1" fill="#887e71" d="M 145.5,270.5 C 142.203,270.89 139.203,271.89 136.5,273.5C 135.596,272.791 135.263,271.791 135.5,270.5C 138.833,270.5 142.167,270.5 145.5,270.5 Z"/></g>
<g><path style="opacity:1" fill="#140f0c" d="M 145.5,270.5 C 148.518,270.335 151.518,270.502 154.5,271C 157.326,273.522 156.993,275.522 153.5,277C 149.833,277.667 146.167,277.667 142.5,277C 140.609,275.558 138.609,274.391 136.5,273.5C 139.203,271.89 142.203,270.89 145.5,270.5 Z"/></g>
<g><path style="opacity:1" fill="#7fb0c3" d="M 289.5,261.5 C 285.308,267.891 280.642,273.891 275.5,279.5C 279.223,272.698 283.889,266.698 289.5,261.5 Z"/></g>
<g><path style="opacity:1" fill="#1b4372" d="M 95.5,270.5 C 97.5869,271.585 98.9202,273.251 99.5,275.5C 97.4131,274.415 96.0798,272.749 95.5,270.5 Z"/></g>
<g><path style="opacity:1" fill="#a9c6ad" d="M 273.5,281.5 C 272.5,283.5 271.5,285.5 270.5,287.5C 269.833,287.833 269.167,288.167 268.5,288.5C 269.456,285.561 271.123,283.228 273.5,281.5 Z"/></g>
<g><path style="opacity:1" fill="#a6c6b2" d="M 263.5,295.5 C 262.876,297.754 261.543,299.421 259.5,300.5C 260.136,298.205 261.469,296.539 263.5,295.5 Z"/></g>
<g><path style="opacity:1" fill="#faed74" d="M 301.5,148.5 C 324.502,148.333 347.502,148.5 370.5,149C 369.748,149.671 369.414,150.504 369.5,151.5C 367.975,153.216 366.975,155.216 366.5,157.5C 362.078,161.587 358.411,166.254 355.5,171.5C 353.983,171.511 352.816,172.177 352,173.5C 349.531,177.095 347.364,180.762 345.5,184.5C 343.523,188.133 341.19,191.467 338.5,194.5C 336.413,195.585 335.08,197.251 334.5,199.5C 332.034,201.74 330.034,204.407 328.5,207.5C 324.124,211.891 320.458,216.891 317.5,222.5C 315.065,223.27 313.731,224.937 313.5,227.5C 312.5,227.5 311.5,227.5 310.5,227.5C 310.5,228.5 310.5,229.5 310.5,230.5C 309.5,230.5 308.5,230.5 307.5,230.5C 307.698,233.77 306.198,235.77 303,236.5C 302.548,240.138 300.714,242.472 297.5,243.5C 297.5,244.833 297.5,246.167 297.5,247.5C 294.336,251.001 292.003,255.001 290.5,259.5C 289.662,259.842 289.328,260.508 289.5,261.5C 283.889,266.698 279.223,272.698 275.5,279.5C 274.5,279.833 273.833,280.5 273.5,281.5C 271.123,283.228 269.456,285.561 268.5,288.5C 266.453,290.55 264.786,292.883 263.5,295.5C 261.469,296.539 260.136,298.205 259.5,300.5C 258.4,301.605 257.733,302.938 257.5,304.5C 254.189,308.147 250.855,311.813 247.5,315.5C 244.304,318.254 241.97,321.588 240.5,325.5C 238.833,328.167 237.167,330.833 235.5,333.5C 233.807,334.475 232.307,335.808 231,337.5C 227.591,343.04 224.091,348.373 220.5,353.5C 217.529,355.443 215.529,358.109 214.5,361.5C 214.5,362.167 214.167,362.5 213.5,362.5C 211.086,363.911 209.419,365.911 208.5,368.5C 208.573,370.027 207.906,371.027 206.5,371.5C 203.723,373.951 201.723,376.951 200.5,380.5C 199.5,381.833 198.5,383.167 197.5,384.5C 189.5,384.5 181.5,384.5 173.5,384.5C 172.587,382.438 171.087,382.105 169,383.5C 165.981,382.191 162.815,381.191 159.5,380.5C 158.914,380.709 158.414,381.043 158,381.5C 148.421,378.147 138.588,375.814 128.5,374.5C 128.167,374.5 127.833,374.5 127.5,374.5C 127.839,371.331 129.505,369.164 132.5,368C 131.426,367.261 130.759,366.261 130.5,365C 131.463,360.225 133.796,356.392 137.5,353.5C 136.652,351.591 136.318,349.591 136.5,347.5C 137.319,343.225 138.653,339.225 140.5,335.5C 142.252,333.091 144.585,331.424 147.5,330.5C 147.5,328.833 147.5,327.167 147.5,325.5C 149.833,326.167 152.167,326.833 154.5,327.5C 159.924,329.94 165.591,331.607 171.5,332.5C 177.653,333.653 183.986,333.82 190.5,333C 194.943,330.613 199.61,330.113 204.5,331.5C 204.291,329.286 205.124,327.619 207,326.5C 209.62,325.794 212.12,324.794 214.5,323.5C 215.478,323.977 216.311,324.643 217,325.5C 218.554,323.031 219.887,320.697 221,318.5C 221.333,318.833 221.667,319.167 222,319.5C 222.49,318.207 222.657,316.873 222.5,315.5C 230.279,306.941 235.112,296.941 237,285.5C 244.198,278.636 251.032,271.47 257.5,264C 262.056,263.891 266.389,262.891 270.5,261C 284.52,251.815 289.02,239.315 284,223.5C 282.989,222.663 281.822,222.33 280.5,222.5C 285.398,213.16 289.731,203.494 293.5,193.5C 295.104,192.713 295.771,191.38 295.5,189.5C 296.5,189.5 297.5,189.5 298.5,189.5C 298.883,183.987 299.216,178.32 299.5,172.5C 300.268,171.737 300.768,170.737 301,169.5C 301.5,162.508 301.666,155.508 301.5,148.5 Z"/></g>
<g><path style="opacity:1" fill="#5d9fda" d="M 270.5,287.5 C 270.649,288.552 270.483,289.552 270,290.5C 265.209,294.797 261.876,300.131 260,306.5C 259.583,305.244 258.75,304.577 257.5,304.5C 257.733,302.938 258.4,301.605 259.5,300.5C 261.543,299.421 262.876,297.754 263.5,295.5C 264.786,292.883 266.453,290.55 268.5,288.5C 269.167,288.167 269.833,287.833 270.5,287.5 Z"/></g>
<g><path style="opacity:1" fill="#6ea3cf" d="M 257.5,304.5 C 255.552,309.095 253.219,313.428 250.5,317.5C 249.5,317.5 248.5,317.5 247.5,317.5C 247.5,316.833 247.5,316.167 247.5,315.5C 250.855,311.813 254.189,308.147 257.5,304.5 Z"/></g>
<g><path style="opacity:1" fill="#d9e39b" d="M 247.5,315.5 C 247.5,316.167 247.5,316.833 247.5,317.5C 245.157,320.207 242.823,322.874 240.5,325.5C 241.97,321.588 244.304,318.254 247.5,315.5 Z"/></g>
<g><path style="opacity:1" fill="#6ba5cd" d="M 145.5,319.5 C 145.5,319.833 145.5,320.167 145.5,320.5C 144.465,323.994 143.132,327.327 141.5,330.5C 141.598,326.248 142.932,322.581 145.5,319.5 Z"/></g>
<g><path style="opacity:1" fill="#e9e381" d="M 145.5,320.5 C 148.792,322.458 151.792,324.791 154.5,327.5C 152.167,326.833 149.833,326.167 147.5,325.5C 147.5,327.167 147.5,328.833 147.5,330.5C 144.585,331.424 142.252,333.091 140.5,335.5C 141.038,333.883 141.371,332.216 141.5,330.5C 143.132,327.327 144.465,323.994 145.5,320.5 Z"/></g>
<g><path style="opacity:1" fill="#ded672" d="M 222.5,315.5 C 222.657,316.873 222.49,318.207 222,319.5C 221.667,319.167 221.333,318.833 221,318.5C 219.887,320.697 218.554,323.031 217,325.5C 216.311,324.643 215.478,323.977 214.5,323.5C 212.12,324.794 209.62,325.794 207,326.5C 205.124,327.619 204.291,329.286 204.5,331.5C 199.61,330.113 194.943,330.613 190.5,333C 183.986,333.82 177.653,333.653 171.5,332.5C 190.775,333.348 207.775,327.682 222.5,315.5 Z"/></g>
<g><path style="opacity:1" fill="#67a1ce" d="M 141.5,330.5 C 141.371,332.216 141.038,333.883 140.5,335.5C 138.653,339.225 137.319,343.225 136.5,347.5C 136.167,347.5 135.833,347.5 135.5,347.5C 136.006,341.977 137.34,336.643 139.5,331.5C 140.183,331.137 140.85,330.804 141.5,330.5 Z"/></g>
<g><path style="opacity:1" fill="#9bbfb7" d="M 235.5,333.5 C 230.963,340.601 225.963,347.268 220.5,353.5C 224.091,348.373 227.591,343.04 231,337.5C 232.307,335.808 233.807,334.475 235.5,333.5 Z"/></g>
<g><path style="opacity:1" fill="#e9e790" d="M 135.5,347.5 C 135.833,347.5 136.167,347.5 136.5,347.5C 136.318,349.591 136.652,351.591 137.5,353.5C 133.796,356.392 131.463,360.225 130.5,365C 130.759,366.261 131.426,367.261 132.5,368C 129.505,369.164 127.839,371.331 127.5,374.5C 126.508,374.672 125.842,374.338 125.5,373.5C 127.16,368.88 128.826,364.213 130.5,359.5C 133.344,356.05 135.01,352.05 135.5,347.5 Z"/></g>
<g><path style="opacity:1" fill="#94bab8" d="M 220.5,353.5 C 218.984,356.533 216.984,359.2 214.5,361.5C 215.529,358.109 217.529,355.443 220.5,353.5 Z"/></g>
<g><path style="opacity:1" fill="#87b4c3" d="M 135.5,347.5 C 135.01,352.05 133.344,356.05 130.5,359.5C 130.672,354.738 132.338,350.738 135.5,347.5 Z"/></g>
<g><path style="opacity:1" fill="#bbd4b2" d="M 213.5,362.5 C 212.581,365.089 210.914,367.089 208.5,368.5C 209.419,365.911 211.086,363.911 213.5,362.5 Z"/></g>
<g><path style="opacity:1" fill="#d5d895" d="M 128.5,374.5 C 138.588,375.814 148.421,378.147 158,381.5C 158.414,381.043 158.914,380.709 159.5,380.5C 162.815,381.191 165.981,382.191 169,383.5C 171.087,382.105 172.587,382.438 173.5,384.5C 170.833,384.5 168.167,384.5 165.5,384.5C 157.695,382.696 149.695,381.196 141.5,380C 136.919,378.3 132.585,376.466 128.5,374.5 Z"/></g>
<g><path style="opacity:1" fill="#a9cbb3" d="M 206.5,371.5 C 205.277,375.049 203.277,378.049 200.5,380.5C 201.723,376.951 203.723,373.951 206.5,371.5 Z"/></g>
</svg>
