<?xml version="1.0" standalone="no"?>
<!DOCTYPE svg PUBLIC "-//W3C//DTD SVG 20010904//EN"
 "http://www.w3.org/TR/2001/REC-SVG-20010904/DTD/svg10.dtd">
<svg version="1.0" xmlns="http://www.w3.org/2000/svg"
 width="385.000000pt" height="385.000000pt" viewBox="0 0 385.000000 385.000000"
 preserveAspectRatio="xMidYMid meet">
<metadata>
Created by potrace 1.16, written by Peter Selinger 2001-2019
</metadata>
<g transform="translate(0.000000,385.000000) scale(0.100000,-0.100000)"
fill="#000000" stroke="none">
<path d="M2017 3315 c-49 -17 -96 -54 -148 -115 -51 -61 -78 -70 -223 -79
-135 -8 -166 -23 -266 -127 -92 -95 -147 -112 -217 -68 -29 19 -29 46 2 112
14 30 25 56 25 59 0 7 -62 -8 -84 -21 -88 -50 -178 -152 -191 -218 -13 -61 -6
-148 14 -202 9 -22 9 -32 -2 -45 -12 -15 -37 -64 -43 -86 -22 -76 -9 -144 46
-255 l28 -55 -19 -37 c-11 -21 -32 -77 -49 -126 -94 -282 -76 -629 46 -872 34
-68 130 -202 180 -254 63 -63 143 -120 244 -173 28 -15 53 -38 67 -62 28 -49
127 -124 195 -148 40 -14 80 -18 168 -17 134 1 230 27 339 91 120 72 222 211
237 325 6 40 13 53 55 88 27 22 74 72 106 110 51 63 61 70 93 70 83 0 184 79
229 181 35 77 24 206 -20 230 -19 10 -19 10 -1 37 56 78 131 271 164 417 21
94 35 368 20 389 -4 6 -19 38 -32 71 -13 33 -36 81 -52 106 -15 25 -28 51 -28
58 0 6 -4 11 -10 11 -5 0 -10 5 -10 11 0 18 -91 107 -145 144 -35 23 -61 51
-85 94 -97 168 -102 173 -244 196 -98 15 -115 23 -177 80 -79 73 -152 101
-212 80z m101 -74 c20 -11 60 -39 88 -64 50 -42 101 -65 226 -102 76 -23 121
-63 188 -167 33 -51 74 -101 98 -118 60 -43 132 -154 183 -281 26 -68 37 -236
20 -335 -13 -74 -68 -264 -81 -277 -4 -5 -13 13 -19 40 -21 82 -71 162 -152
241 l-76 76 48 38 c102 81 124 153 75 252 -53 107 -146 131 -303 77 -50 -17
-102 -31 -116 -31 -19 0 -41 20 -101 94 -141 176 -152 179 -322 92 -139 -72
-137 -72 -214 -25 -105 64 -156 47 -298 -102 -111 -115 -149 -139 -223 -139
-48 0 -55 3 -90 40 -43 45 -79 143 -79 214 0 59 23 130 56 173 l28 36 13 -38
c17 -50 30 -65 78 -86 86 -40 143 -21 258 86 153 143 198 158 324 113 78 -28
96 -21 160 64 27 35 67 82 89 106 48 48 81 54 142 23z m-463 -547 c62 -36 127
-37 205 -3 111 48 205 26 297 -72 73 -77 92 -83 205 -59 51 11 117 20 147 20
49 0 57 -3 91 -38 40 -40 57 -91 46 -136 -9 -36 -53 -84 -97 -107 -22 -11 -39
-26 -39 -33 0 -7 24 -32 53 -53 138 -106 216 -221 225 -331 l4 -57 -45 90
c-25 50 -57 106 -71 125 -48 63 -128 140 -147 140 -35 0 -32 -23 9 -57 100
-82 249 -315 240 -374 -2 -16 -15 2 -48 67 -50 100 -161 224 -199 224 -37 0
-23 -27 52 -102 72 -73 177 -233 177 -271 0 -15 -5 -17 -30 -12 -37 8 -37 3
-1 -43 70 -88 59 -193 -27 -274 -50 -47 -129 -77 -170 -64 -15 5 -30 -9 -73
-66 -77 -105 -202 -225 -302 -292 -48 -32 -84 -62 -81 -68 9 -14 80 -3 137 21
56 24 60 15 19 -50 -51 -79 -131 -137 -257 -184 -88 -33 -223 -45 -275 -23
l-35 14 75 13 c41 7 86 18 99 25 21 12 13 14 -75 19 -199 11 -409 110 -557
261 -275 280 -370 758 -230 1149 30 85 122 269 162 324 22 30 40 42 87 57 53
17 69 29 169 133 60 64 119 119 130 123 27 10 74 -3 130 -36z m-619 -185 c3
-6 19 -18 34 -28 l28 -16 -49 -79 c-26 -43 -50 -84 -53 -90 -7 -17 -24 12 -42
72 -27 89 9 187 58 161 9 -5 20 -14 24 -20z"/>
<path d="M1996 2409 c-14 -17 -26 -37 -26 -45 0 -7 21 -25 48 -38 26 -13 69
-40 97 -60 62 -44 80 -46 70 -8 -15 60 -112 182 -145 182 -10 0 -30 -14 -44
-31z"/>
<path d="M1222 2173 c-7 -3 -22 -23 -33 -46 -41 -80 -8 -201 51 -182 33 11 63
87 58 147 -7 66 -36 97 -76 81z"/>
<path d="M1612 2143 c-7 -3 -22 -24 -34 -46 -35 -69 -93 -150 -162 -226 -41
-44 -66 -80 -66 -94 0 -12 20 -53 43 -92 39 -63 47 -70 79 -73 22 -2 39 3 48
13 11 13 7 24 -24 70 -20 30 -36 64 -36 76 0 12 27 65 59 118 67 108 127 240
114 251 -4 4 -14 5 -21 3z"/>
<path d="M1962 2123 c-7 -3 -22 -23 -33 -46 -41 -80 -8 -201 51 -182 33 11 63
87 58 147 -7 66 -36 97 -76 81z"/>
<path d="M1876 1561 c8 -58 10 -57 -116 -90 -217 -58 -324 -62 -499 -21 -98
23 -133 45 -124 78 10 38 -15 31 -61 -18 -25 -27 -46 -54 -46 -60 0 -13 53
-118 73 -145 15 -20 16 -19 22 8 4 15 13 27 21 27 7 0 47 -22 89 -49 119 -78
172 -95 290 -95 93 -1 106 2 188 36 48 20 124 58 168 83 100 58 119 55 119
-17 0 -71 20 -58 47 33 35 118 35 116 -67 200 -49 41 -95 76 -100 77 -7 3 -9
-13 -4 -47z m68 -117 c35 -34 16 -50 -138 -113 -235 -96 -333 -96 -556 0 -81
35 -122 58 -126 72 -12 38 10 42 113 18 221 -49 311 -48 522 9 124 33 164 36
185 14z"/>
</g>
</svg>
